<?xml version="1.0" encoding="UTF-8"?>
<svg width="73px" height="73px" viewBox="0 0 73 73" version="1.1" xmlns="http://www.w3.org/2000/svg" xmlns:xlink="http://www.w3.org/1999/xlink">
    <!-- Generator: Sketch 48.2 (47327) - http://www.bohemiancoding.com/sketch -->
    <title>备课教案</title>
    <desc>Created with Sketch.</desc>
    <defs></defs>
    <g id="好学伴作业辅导系统" stroke="none" stroke-width="1" fill="none" fill-rule="evenodd" transform="translate(-493.000000, -955.000000)">
        <g id="Group-3" transform="translate(493.000000, 955.000000)" fill="#FFFFFF" fill-rule="nonzero">
            <g id="备课教案">
                <path d="M30.4880787,73 C30.1885426,73 29.8810318,72.9842027 29.570917,72.9485577 L7.85661971,70.5101918 C3.4512165,70.0153735 0,66.1823941 0,61.7860607 L0,7.51481986 C0,2.97857948 3.80901621,-0.515285517 8.48742778,0.0626506691 L30.2017251,2.68304943 C34.5753112,3.20954334 38,7.04908454 38,11.4230589 L38,65.4673865 C38.0000813,69.6908413 34.6999756,73 30.4880787,73 Z M7.50142405,5.40771011 C6.27943692,5.40771011 5.42859467,6.27323721 5.42859467,7.51481986 L5.42859467,61.7860607 C5.42859467,63.4194961 6.82016434,64.9553935 8.46627061,65.1400998 L30.1805679,67.5784657 C31.540402,67.7236384 32.5714867,66.8237623 32.5714867,65.4673864 L32.5714867,11.4230589 C32.5714867,9.79091967 31.1878102,8.24586785 29.5496785,8.04795669 L7.83538119,5.42755793 C7.7213768,5.41427198 7.61005772,5.40771011 7.50142405,5.40771011 Z" id="Shape"></path>
                <path d="M43.6639481,73 C42.3262348,73 41.1706865,71.9808906 41.0171246,70.6001407 C40.8531763,69.1163777 41.904619,67.7778544 43.3672111,67.6102451 L64.6874502,65.1694562 C66.3036839,64.9846646 67.6700001,63.4481387 67.6700001,61.8138678 L67.6700001,7.51755908 C67.6700001,6.85887434 67.4357425,6.28593932 67.0141267,5.90573875 C66.5794878,5.5162986 65.9782639,5.34868932 65.3068106,5.42917099 L43.9865716,8.05078012 C42.5265363,8.23824631 41.1966529,7.17423575 41.0196014,5.69185059 C40.8426299,4.21076222 41.8836861,2.86299931 43.3462781,2.68347591 L64.6665171,0.0618667835 C66.8188588,-0.21532059 68.9789505,0.448632332 70.5483646,1.85847869 C72.1281653,3.28015822 73,5.28928048 73,7.51755916 L73,61.8138679 C73,66.2123131 69.6114141,70.0470628 65.2859576,70.5420288 L43.9657186,72.9828176 C43.8644093,72.9947318 43.7628604,73 43.6639481,73 Z" id="Shape"></path>
            </g>
        </g>
    </g>
</svg>