<?xml version="1.0" encoding="UTF-8"?>
<svg width="67px" height="74px" viewBox="0 0 67 74" version="1.1" xmlns="http://www.w3.org/2000/svg" xmlns:xlink="http://www.w3.org/1999/xlink">
    <!-- Generator: Sketch 48.2 (47327) - http://www.bohemiancoding.com/sketch -->
    <title>一日常规</title>
    <desc>Created with Sketch.</desc>
    <defs>
        <polygon id="path-1" points="0 0 73 0 73 81 0 81"></polygon>
    </defs>
    <g id="主页" stroke="none" stroke-width="1" fill="none" fill-rule="evenodd" transform="translate(-504.000000, -595.000000)" opacity="0.38">
        <g id="Group-6" transform="translate(361.000000, 79.000000)">
            <g id="Group-5">
                <g id="Group" transform="translate(140.000000, 511.000000)">
                    <g id="一日常规">
                        <mask id="mask-2" fill="white">
                            <use xlink:href="#path-1"></use>
                        </mask>
                        <g id="Clip-2"></g>
                        <path d="M61.132504,51.5940444 L70,69.0812395 L57.8444407,69.4877164 L50.3054552,79 L42.6513667,63.9057438 C38.5950506,64.7558287 34.4057797,64.7558287 30.3498788,63.9057438 L22.6945448,79 L15.1555593,69.4877164 L3,69.0812395 L11.8679111,51.5928033 C8.5636565,46.8036158 6.62496534,41.0099236 6.62496534,34.7718994 C6.62496534,18.3557141 20.0272487,5 36.5002595,5 C52.9735816,5 66.375865,18.3557141 66.375865,34.7718994 C66.375865,41.0103373 64.4363435,46.8044433 61.132504,51.5940444 Z M36.4970116,60.1911697 C50.643597,60.1911697 62.1116703,48.7629448 62.1116703,34.6655149 C62.1116703,20.568085 50.643597,9.13986014 36.4970116,9.13986014 C22.3504263,9.13986014 10.8823529,20.568085 10.8823529,34.6655149 C10.8823529,48.7629448 22.3504263,60.1911697 36.4970116,60.1911697 Z M21.7425841,69.569322 L17.7009024,64.4686057 L11.1836244,64.2516112 L15.437764,55.8633965 C18.2798423,58.6818433 21.6606938,60.9030896 25.380108,62.3959872 L21.7425841,69.569322 Z M33.5579999,48.0008045 L19.9055728,34.3950333 L23.3278804,30.9849107 L33.5579999,41.1802658 L49.7169723,25.0783217 L53.1392799,28.4883465 L33.5579999,48.0008045 Z M55.2992014,64.4686057 L51.2570008,69.569322 L47.619892,62.3964009 C51.3393062,60.9035033 54.7197425,58.6825673 57.562236,55.8641205 L61.8160642,64.2516112 L55.2992014,64.4686057 Z" id="Fill-1" fill="#FFFFFF" mask="url(#mask-2)"></path>
                    </g>
                </g>
            </g>
        </g>
    </g>
</svg>