<?xml version="1.0" encoding="UTF-8"?>
<svg width="64px" height="68px" viewBox="0 0 64 68" version="1.1" xmlns="http://www.w3.org/2000/svg" xmlns:xlink="http://www.w3.org/1999/xlink">
    <!-- Generator: Sketch 48.2 (47327) - http://www.bohemiancoding.com/sketch -->
    <title>日常监管</title>
    <desc>Created with Sketch.</desc>
    <defs></defs>
    <g id="学生详情页" stroke="none" stroke-width="1" fill="none" fill-rule="evenodd" transform="translate(-505.000000, -777.000000)">
        <g id="Group-6" transform="translate(361.000000, 79.000000)" fill="#FF0000" fill-rule="nonzero">
            <g id="Group-5">
                <g id="Group-2" transform="translate(117.000000, 698.000000)">
                    <g id="日常监管" transform="translate(27.000000, 0.000000)">
                        <path d="M46.5969536,0 L5.57490564,0 C2.50064312,0 0,2.49591493 0,5.5643668 L0,62.4353996 C0,65.5037736 2.50064304,68 5.57490564,68 L58.4261795,68 C61.499357,68 64,65.5036958 64,62.4353996 L64,16.8286438 L46.5969536,0 Z M47.4843935,4.85986775 L59.4208873,16.4841407 L47.4843935,16.4841407 L47.4843935,4.85986775 Z M61.1088059,62.4353996 C61.1088059,63.9127533 59.9052977,65.1145046 58.4261795,65.1145046 L5.57490564,65.1145046 C4.09470226,65.1145046 2.89103917,63.9127534 2.89103917,62.4353996 L2.89103917,5.56428889 C2.89103917,4.08677949 4.09462478,2.88549533 5.57490564,2.88549533 L44.5929669,2.88549533 L44.5929669,19.3701032 L61.1088059,19.3701032 L61.1088059,62.4353996 Z M12.6060653,31.0857765 L50.44263,30.9799732 L50.4241837,28.1714753 L12.6060653,28.1714753 L12.6060653,31.0857765 Z M12.6060653,41.7714441 L50.4242612,41.7714441 L50.4242612,38.8571428 L12.6060653,38.8571428 L12.6060653,41.7714441 Z M12.6060653,52.4571896 L50.4242612,52.4571896 L50.4242612,49.5428883 L12.6060653,49.5428883 L12.6060653,52.4571896 Z" id="Shape"></path>
                    </g>
                </g>
            </g>
        </g>
    </g>
</svg>
